%TF.GenerationSoftware,KiCad,Pcbnew,8.0.0*%
%TF.CreationDate,2024-04-09T00:47:27+05:00*%
%TF.ProjectId,Power_Supply,506f7765-725f-4537-9570-706c792e6b69,rev?*%
%TF.SameCoordinates,Original*%
%TF.FileFunction,Copper,L2,Bot*%
%TF.FilePolarity,Positive*%
%FSLAX46Y46*%
G04 Gerber Fmt 4.6, Leading zero omitted, Abs format (unit mm)*
G04 Created by KiCad (PCBNEW 8.0.0) date 2024-04-09 00:47:27*
%MOMM*%
%LPD*%
G01*
G04 APERTURE LIST*
%TA.AperFunction,ComponentPad*%
%ADD10R,1.600000X1.600000*%
%TD*%
%TA.AperFunction,ComponentPad*%
%ADD11C,1.600000*%
%TD*%
%TA.AperFunction,ComponentPad*%
%ADD12C,2.600000*%
%TD*%
%TA.AperFunction,ConnectorPad*%
%ADD13C,4.400000*%
%TD*%
%TA.AperFunction,ComponentPad*%
%ADD14R,1.905000X2.000000*%
%TD*%
%TA.AperFunction,ComponentPad*%
%ADD15O,1.905000X2.000000*%
%TD*%
%TA.AperFunction,ComponentPad*%
%ADD16C,1.400000*%
%TD*%
%TA.AperFunction,ComponentPad*%
%ADD17O,1.400000X1.400000*%
%TD*%
%TA.AperFunction,ComponentPad*%
%ADD18R,3.000000X3.000000*%
%TD*%
%TA.AperFunction,ComponentPad*%
%ADD19C,3.000000*%
%TD*%
%TA.AperFunction,ComponentPad*%
%ADD20R,1.800000X1.800000*%
%TD*%
%TA.AperFunction,ComponentPad*%
%ADD21C,1.800000*%
%TD*%
%TA.AperFunction,ComponentPad*%
%ADD22R,2.200000X2.200000*%
%TD*%
%TA.AperFunction,ComponentPad*%
%ADD23O,2.200000X2.200000*%
%TD*%
%TA.AperFunction,Conductor*%
%ADD24C,0.200000*%
%TD*%
G04 APERTURE END LIST*
D10*
%TO.P,C1,1*%
%TO.N,Net-(D1-K)*%
X148200000Y-98000000D03*
D11*
%TO.P,C1,2*%
%TO.N,Net-(D3-A)*%
X152000000Y-98000000D03*
%TD*%
D12*
%TO.P,H4,1*%
%TO.N,N/C*%
X185000000Y-102000000D03*
D13*
X185000000Y-102000000D03*
%TD*%
D12*
%TO.P,H3,1*%
%TO.N,N/C*%
X185000000Y-82000000D03*
D13*
X185000000Y-82000000D03*
%TD*%
D12*
%TO.P,H2,1*%
%TO.N,N/C*%
X119000000Y-102000000D03*
D13*
X119000000Y-102000000D03*
%TD*%
D12*
%TO.P,H1,1*%
%TO.N,N/C*%
X119000000Y-82150000D03*
D13*
X119000000Y-82150000D03*
%TD*%
D14*
%TO.P,U1,1,VI*%
%TO.N,Net-(D1-K)*%
X152460000Y-84695000D03*
D15*
%TO.P,U1,2,GND*%
%TO.N,Net-(D3-A)*%
X155000000Y-84695000D03*
%TO.P,U1,3,VO*%
%TO.N,Net-(J2-Pin_1)*%
X157540000Y-84695000D03*
%TD*%
D16*
%TO.P,R1,1*%
%TO.N,Net-(J2-Pin_1)*%
X169000000Y-83190000D03*
D17*
%TO.P,R1,2*%
%TO.N,Net-(D5-A)*%
X169000000Y-90810000D03*
%TD*%
D18*
%TO.P,J2,1,Pin_1*%
%TO.N,Net-(J2-Pin_1)*%
X177000000Y-88920000D03*
D19*
%TO.P,J2,2,Pin_2*%
%TO.N,Net-(D3-A)*%
X177000000Y-94000000D03*
%TD*%
D18*
%TO.P,J1,1,Pin_1*%
%TO.N,Net-(D2-A)*%
X122000000Y-93080000D03*
D19*
%TO.P,J1,2,Pin_2*%
%TO.N,Net-(D1-A)*%
X122000000Y-88000000D03*
%TD*%
D20*
%TO.P,D5,1,K*%
%TO.N,Net-(D3-A)*%
X167460000Y-98000000D03*
D21*
%TO.P,D5,2,A*%
%TO.N,Net-(D5-A)*%
X170000000Y-98000000D03*
%TD*%
D22*
%TO.P,D4,1,K*%
%TO.N,Net-(D2-A)*%
X140080000Y-102000000D03*
D23*
%TO.P,D4,2,A*%
%TO.N,Net-(D3-A)*%
X129920000Y-102000000D03*
%TD*%
D22*
%TO.P,D3,1,K*%
%TO.N,Net-(D1-A)*%
X140080000Y-84000000D03*
D23*
%TO.P,D3,2,A*%
%TO.N,Net-(D3-A)*%
X129920000Y-84000000D03*
%TD*%
D22*
%TO.P,D2,1,K*%
%TO.N,Net-(D1-K)*%
X132000000Y-87920000D03*
D23*
%TO.P,D2,2,A*%
%TO.N,Net-(D2-A)*%
X132000000Y-98080000D03*
%TD*%
D22*
%TO.P,D1,1,K*%
%TO.N,Net-(D1-K)*%
X140000000Y-87920000D03*
D23*
%TO.P,D1,2,A*%
%TO.N,Net-(D1-A)*%
X140000000Y-98080000D03*
%TD*%
D10*
%TO.P,C2,1*%
%TO.N,Net-(J2-Pin_1)*%
X162500000Y-98000000D03*
D11*
%TO.P,C2,2*%
%TO.N,Net-(D3-A)*%
X159000000Y-98000000D03*
%TD*%
D24*
%TO.N,Net-(D5-A)*%
X171000000Y-97000000D02*
X170000000Y-98000000D01*
X171000000Y-91000000D02*
X171000000Y-97000000D01*
X170810000Y-90810000D02*
X171000000Y-91000000D01*
X169000000Y-90810000D02*
X170810000Y-90810000D01*
%TO.N,Net-(D3-A)*%
X166460000Y-98000000D02*
X167460000Y-98000000D01*
X166460000Y-100540000D02*
X166000000Y-101000000D01*
X166460000Y-98000000D02*
X166460000Y-100540000D01*
%TO.N,Net-(D2-A)*%
X130600000Y-103400000D02*
X131000000Y-103000000D01*
X126000000Y-100059900D02*
X129340100Y-103400000D01*
X126000000Y-97080000D02*
X126000000Y-100059900D01*
X129340100Y-103400000D02*
X130600000Y-103400000D01*
X131000000Y-103000000D02*
X139080000Y-103000000D01*
X139080000Y-103000000D02*
X140080000Y-102000000D01*
X122000000Y-93080000D02*
X126000000Y-97080000D01*
%TO.N,Net-(D3-A)*%
X119000000Y-94000000D02*
X119000000Y-90000000D01*
X124000000Y-99000000D02*
X119000000Y-94000000D01*
X124000000Y-104000000D02*
X124000000Y-99000000D01*
X119000000Y-90000000D02*
X130000000Y-90000000D01*
X151823674Y-104000000D02*
X124000000Y-104000000D01*
X152000000Y-98000000D02*
X152000000Y-103823674D01*
X152000000Y-103823674D02*
X151823674Y-104000000D01*
%TO.N,Net-(D1-A)*%
X140080000Y-81000000D02*
X140080000Y-84000000D01*
X125000000Y-81000000D02*
X140080000Y-81000000D01*
X122000000Y-88000000D02*
X122000000Y-84000000D01*
X122000000Y-84000000D02*
X125000000Y-81000000D01*
%TO.N,Net-(J2-Pin_1)*%
X174730000Y-83190000D02*
X177000000Y-85460000D01*
X177000000Y-85460000D02*
X177000000Y-88920000D01*
X163380000Y-84000000D02*
X164190000Y-83190000D01*
X160000000Y-84000000D02*
X163380000Y-84000000D01*
X159305000Y-84695000D02*
X160000000Y-84000000D01*
X157540000Y-84695000D02*
X159305000Y-84695000D01*
X164190000Y-83190000D02*
X174730000Y-83190000D01*
%TO.N,Net-(D3-A)*%
X176540000Y-102000000D02*
X170000000Y-102000000D01*
X177000000Y-101540000D02*
X176540000Y-102000000D01*
X170000000Y-102000000D02*
X170000000Y-101000000D01*
X170000000Y-101000000D02*
X166000000Y-101000000D01*
X177000000Y-94000000D02*
X177000000Y-101540000D01*
X130000000Y-90000000D02*
X130000000Y-84080000D01*
X130000000Y-101000000D02*
X130000000Y-90000000D01*
X130000000Y-84080000D02*
X129920000Y-84000000D01*
X129000000Y-102000000D02*
X130000000Y-101000000D01*
X129920000Y-102000000D02*
X129000000Y-102000000D01*
X166000000Y-101000000D02*
X160000000Y-101000000D01*
X160000000Y-101000000D02*
X159000000Y-100000000D01*
X159000000Y-100000000D02*
X159000000Y-98000000D01*
%TO.N,Net-(J2-Pin_1)*%
X157540000Y-93040000D02*
X162500000Y-98000000D01*
X157540000Y-84695000D02*
X157540000Y-93040000D01*
%TO.N,Net-(D3-A)*%
X155000000Y-84695000D02*
X155000000Y-98000000D01*
X155000000Y-98000000D02*
X159000000Y-98000000D01*
X152000000Y-98000000D02*
X155000000Y-98000000D01*
%TO.N,Net-(D1-K)*%
X148200000Y-88955000D02*
X152460000Y-84695000D01*
X148200000Y-98000000D02*
X148200000Y-88955000D01*
X139000000Y-100000000D02*
X146200000Y-100000000D01*
X146200000Y-100000000D02*
X148200000Y-98000000D01*
X138000000Y-99000000D02*
X139000000Y-100000000D01*
X138000000Y-92000000D02*
X138000000Y-99000000D01*
X140000000Y-90000000D02*
X138000000Y-92000000D01*
X140000000Y-87920000D02*
X140000000Y-90000000D01*
%TO.N,Net-(D2-A)*%
X136160000Y-98080000D02*
X140080000Y-102000000D01*
X132000000Y-98080000D02*
X136160000Y-98080000D01*
%TO.N,Net-(D1-A)*%
X141400000Y-96680000D02*
X140000000Y-98080000D01*
X141400000Y-85320000D02*
X141400000Y-96680000D01*
X140080000Y-84000000D02*
X141400000Y-85320000D01*
%TO.N,Net-(D1-K)*%
X132000000Y-87920000D02*
X140000000Y-87920000D01*
%TO.N,Net-(D2-A)*%
X140000000Y-102000000D02*
X140080000Y-101920000D01*
%TD*%
M02*
