M48
; DRILL file {KiCad 8.0.0} date 2024-04-09T00:47:20+0500
; FORMAT={-:-/ absolute / inch / decimal}
; #@! TF.CreationDate,2024-04-09T00:47:20+05:00
; #@! TF.GenerationSoftware,Kicad,Pcbnew,8.0.0
; #@! TF.FileFunction,Plated,1,2,PTH
FMAT,2
INCH
; #@! TA.AperFunction,Plated,PTH,ComponentDrill
T1C0.0276
; #@! TA.AperFunction,Plated,PTH,ComponentDrill
T2C0.0315
; #@! TA.AperFunction,Plated,PTH,ComponentDrill
T3C0.0354
; #@! TA.AperFunction,Plated,PTH,ComponentDrill
T4C0.0433
; #@! TA.AperFunction,Plated,PTH,ComponentDrill
T5C0.0472
; #@! TA.AperFunction,Plated,PTH,ComponentDrill
T6C0.0598
; #@! TA.AperFunction,Plated,PTH,ComponentDrill
T7C0.0866
%
G90
G05
T1
X6.6535Y-3.2752
X6.6535Y-3.5752
T2
X5.8346Y-3.8583
X5.9843Y-3.8583
X6.2598Y-3.8583
X6.3976Y-3.8583
T3
X6.5929Y-3.8583
X6.6929Y-3.8583
T4
X5.115Y-3.3071
X5.115Y-4.0157
X5.1969Y-3.4614
X5.1969Y-3.8614
X5.5118Y-3.4614
X5.5118Y-3.8614
X5.515Y-3.3071
X5.515Y-4.0157
T5
X6.0024Y-3.3344
X6.1024Y-3.3344
X6.2024Y-3.3344
T6
X4.8031Y-3.4646
X4.8031Y-3.6646
X6.9685Y-3.5008
X6.9685Y-3.7008
T7
X4.685Y-3.2343
X4.685Y-4.0157
X7.2835Y-3.2283
X7.2835Y-4.0157
M30
